<svg xmlns="http://www.w3.org/2000/svg" viewBox="0 0 192 192" role="img" aria-label="GoApsny">
  <rect width="192" height="192" rx="36" fill="#0F1A24"/>
  <path fill="#4BA4DD" fill-rule="evenodd" clip-rule="evenodd" d="M127 18c3.2-2.3 7.5-3.6 12.1-2.8 3.2.6 5.7 2 7.8 3.9 3.1 2.9 5.2 6.8 5.3 11.6.2 9.4-7.2 16.9-17.3 16.2-4.8-.3-8.3-2.4-11-5.7-1.9-2.2-3-4.4-3.6-7.9-1.1-6.8 2.7-12.5 6.8-15.3zM46 93c6.2-5.9 13.7-10.4 23.4-12.4.7-.1 1.4-.1 2-.3.7-.3 1.8-2 2.2-2.4 7.5-8.1 14.5-16.5 21.8-24.7-4.3-2.7-8.9-5.2-13.4-7.8-5.3 4.4-10.2 9.1-15.5 13.8-2.4 2.1-6.5 4.4-10.8 2.6-3.6-1.5-6.4-5.1-6.1-10 .3-4.1 3.4-6.3 6-8.6 5.3-4.9 10.8-9.9 16.3-14.7 1.9-1.6 3.7-3.6 6.6-4.2.3-.1.9.1 1.1-.4.1.4 1.2.1 2.1.2 2.5.2 4.6 1.7 6.6 2.9 9.9 5.7 20 11.5 30 17.2 1.9 1.1 3.9 2.3 5.9 3.5 2 1.2 4.2 2.1 6 3.4 3.5 2.7 5.1 8.6 3.1 13.2-1.2 2.8-3.7 5-5.7 7.4-4.6 5.4-9.6 11-14.3 16.5 10-.4 21.3-1.2 30.9-1.9 1.4.2 3.1-.1 4.9.2 4.7.9 8.1 5 7.6 10.9-1.3 14.3-2.4 29.5-3.5 44.6-.3 4.1-.5 7.1-2.6 9.6-2.2 2.6-6.6 4.4-10.7 2.7-3.4-1.4-6.2-4.5-6.1-9 .1-2.2.4-4.6.6-7 0.7-10.4 1.8-22.1 2.5-32.1-3.8 0-8.6.5-12.7.6 3.8 7.8 6.1 19.3 4.1 30.6-1.8 10-6.6 18.5-12.6 24.4-4.2-4-8.3-8.2-12.5-12.2 3.2-3.5 6.1-8.3 7.4-13.6 1.3-5.4 1.2-11.1-.4-16.5-4.4-13.1-14.6-22.3-31.2-22.6-4-.1-8.3.6-11.5 1.3-3.4 1.5-6.2 3.4-8.9 5.6-4.2-4-8.1-8.3-12.3-12.2zM98 154c3.3 2.9 6.4 6.2 9.6 9.4 1 1 2.3 1.9 3 3.1-8.5 6.5-20.1 11-34.3 10.2-5.2-.3-9.8-1.7-14-3.2-1.3-.5-2.5-1.1-3.7-1.7-2.6-1.2-5.1-2.6-7.3-4.2-2.2-1.6-4.1-3.5-6.1-5.4-7.2-6.9-13.1-18.1-14-30.8-.4-6.2.4-13.2 2.3-18.8 1.9-5.6 4.6-10.2 7.8-14.6 3.2 2.8 6.2 6 9.3 9 1.1 1-.4 1.1-.6 1.6-2.4 3.8-4.1 8.7-4.5 14.4-.5 6.7 1.4 12.8 4.2 17.4 2.6 4.3 6.2 8.2 10.8 11 4.5 2.8 10.3 4.8 16.6 4.8 7.3 0 13.1-2.4 17.8-5.5z"/>
</svg>
