<svg xmlns="http://www.w3.org/2000/svg" viewBox="0 0 512 512" role="img" aria-label="GoApsny">
  <rect width="512" height="512" rx="96" fill="#0F1A24"/>
  <path fill="#4BA4DD" fill-rule="evenodd" clip-rule="evenodd" d="M338 48c8.5-6 19.9-9.5 32.2-7.4 8.5 1.5 15.2 5.2 20.7 10.4 8.2 7.6 13.7 18.1 14 30.9.6 25-19.2 44.9-46.1 43.2-12.8-.8-22.1-6.4-29.3-15.1-5-5.9-8-11.7-9.5-21-2.9-18.1 7.2-33.3 18.1-40.8zM123 247c16.6-15.7 36.5-27.7 62.4-33 1.8-.4 3.8-.2 5.3-.8 1.7-.7 4.6-5.2 5.8-6.4 20.1-21.6 38.7-43.9 58.1-65.9-11.5-7.2-23.5-13.8-35.3-20.8-14 11.7-27.1 24.3-41.2 36.7-6.4 5.6-17.2 11.8-28.8 7-9.7-4-17.1-13.7-16.2-26.7.7-10.9 9.1-16.8 16-22.9 14.2-13 28.8-26.3 43.5-39.2 5.1-4.4 9.8-9.5 17.6-11.2 1-.2 2.3.1 2.9-.9.3 1 3.2.3 5.5.5 6.5.6 12.1 4.6 17.4 7.6 26.4 15.1 53.3 30.6 80 45.8 5.2 2.9 10.5 6.1 15.8 9.3 5.3 3.3 11.3 5.6 16 8.9 9.4 7.1 13.7 22.9 8.3 35.1-3.3 7.5-9.9 13.2-15.2 19.4-12.3 14.4-25.7 29.2-38.3 43.7 26.6-1.1 56.6-3.1 82.4-5.1 3.8.6 8.3-.3 13 .5 12.7 2.4 21.8 13.3 20.3 29.1-3.5 38.2-6.3 78.7-9.4 118.7-.9 11-.1 19-7 25.6-5.9 6.8-17.7 11.7-28.6 7.2-9-3.8-16.6-12-16.4-24 .1-5.8 1.1-12.2 1.5-18.5 1.7-27.7 4.8-58.8 6.6-86.2-10 0-23 1.4-33.8 1.7 10 20.7 16.3 51.5 10.8 81.6-4.8 26.8-17.6 49.4-33.5 65.1-11.3-10.8-22.2-21.9-33.3-32.8 8.6-9.4 16.3-22.1 19.7-36.3 3.5-14.5 3.2-29.6-1.1-44.1-11.8-35-39.1-59.5-83.2-60.4-10.7-.2-22.2 1.6-30.7 3.5-9.1 4.1-16.5 9-20.1 14.9-11.1-10.7-21.7-22.1-32.8-32.8zM261 410c9 7.8 17.3 16.5 25.8 25 2.8 2.8 6.1 5.1 8.2 8.3-22.7 17.5-53.8 29.6-91.5 27.3-13.8-.9-26.2-4.6-37.3-8.5-3.4-1.2-6.7-3-9.8-4.5-6.9-3.3-13.7-6.9-19.5-11.1-5.9-4.3-11.1-9.4-16.3-14.4-19.3-18.4-35-48.4-37.2-82.1-1.1-16.5 1.2-35.3 6.2-50.3 5.1-15 12.4-27.3 20.9-39 8.6 7.5 16.5 16 24.8 24.2 2.8 2.8 5.9 5.5 8.3 8.4 1.1 1.1-1 3-1.7 4.2-6.3 10.2-10.9 23.1-12 37.1-1.2 17.9 3.8 34.5 11.1 46.9 6.9 11.5 16.5 21.9 28.8 29.3 12 7.5 27.5 12.8 44.4 12.7 19.6 0 34.8-6.4 47.4-14.6z"/>
</svg>
